<?xml version="1.0" encoding="UTF-8" standalone="no"?>
<!-- Created with Inkscape (http://www.inkscape.org/) -->

<svg
   width="45px"
   height="58px"
   viewBox="0 0 45 58"
   version="1.1"
   id="svg421"
   inkscape:version="1.2.1 (9c6d41e, 2022-07-14)"
   sodipodi:docname="NCIncorrecta.svg"
   xmlns:inkscape="http://www.inkscape.org/namespaces/inkscape"
   xmlns:sodipodi="http://sodipodi.sourceforge.net/DTD/sodipodi-0.dtd"
   xmlns="http://www.w3.org/2000/svg"
   xmlns:svg="http://www.w3.org/2000/svg">
  <sodipodi:namedview
     id="namedview423"
     pagecolor="#ffffff"
     bordercolor="#666666"
     borderopacity="1.0"
     inkscape:showpageshadow="2"
     inkscape:pageopacity="0.0"
     inkscape:pagecheckerboard="0"
     inkscape:deskcolor="#d1d1d1"
     inkscape:document-units="px"
     showgrid="false"
     inkscape:zoom="0.85700056"
     inkscape:cx="357.05928"
     inkscape:cy="180.86336"
     inkscape:window-width="1390"
     inkscape:window-height="1112"
     inkscape:window-x="89"
     inkscape:window-y="44"
     inkscape:window-maximized="0"
     inkscape:current-layer="layer1" />
  <defs
     id="defs418" />
  <g
     inkscape:label="Capa 1"
     inkscape:groupmode="layer"
     id="layer1">
    <path
       style="fill:#000000;stroke-width:0.352778"
       d="M 0.44476406,29.020799 V 0.26940883 H 15.176244 29.907723 l 7.66991,7.67585997 7.66991,7.6758502 v 21.07553 21.07553 H 22.846153 0.44476406 Z m 42.24825894,7.49652 0.0913,-18.60902 h -7.40444 -7.40443 l -0.0952,-7.49653 -0.0952,-7.4965302 H 15.43782 3.0905971 l -0.09126,25.7527802 c -0.05019,14.16403 -0.01497,25.95255 0.07826,26.19671 0.133996,0.35092 4.292649,0.42484 19.8468059,0.35278 l 19.6773,-0.0912 z M 17.14133,52.151099 c -14.2749609,-5.13904 -11.3599049,-25.81585 3.817991,-27.08142 11.951912,-0.99659 19.161012,13.26329 11.558222,22.8626 -3.33444,4.21008 -10.18183,6.08881 -15.376213,4.21882 z m 10.385603,-2.12254 c 11.55947,-6.17365 7.32954,-23.47721 -5.73911,-23.47721 -14.0801779,0 -17.3315699,19.48639 -4.055047,24.30288 2.733288,0.99159 7.077217,0.62539 9.794157,-0.82567 z m -6.709252,-2.16241 c -1.14643,-0.66774 -0.527554,-2.44119 0.851892,-2.44119 0.52473,0 1.35297,0.94219 1.35297,1.53911 0,0.85715 -1.34043,1.40556 -2.204862,0.90208 z m -0.03316,-8.35022 c -0.125275,-1.89177 -0.228593,-4.51114 -0.229597,-5.82083 l -0.0018,-2.38125 h 1.111159 1.11116 l -0.22922,3.2292 c -0.12606,1.77605 -0.22921,4.39543 -0.22921,5.82083 0,4.44618 -1.226842,3.76734 -1.532468,-0.84795 z M 5.7364311,21.965239 c 0,-0.46302 2.116666,-0.52917 16.9333319,-0.52917 14.81667,0 16.93334,0.0661 16.93334,0.52917 0,0.46302 -2.11667,0.52917 -16.93334,0.52917 -14.8166659,0 -16.9333319,-0.0662 -16.9333319,-0.52917 z m 0,-8.11389 c 0,-0.4573 1.293518,-0.52916 9.5249999,-0.52916 8.231482,0 9.525002,0.0719 9.525002,0.52916 0,0.45731 -1.29352,0.52917 -9.525002,0.52917 -8.2314819,0 -9.5249999,-0.0719 -9.5249999,-0.52917 z m 34.5722219,1.31819 c 0,-0.14812 -2.2225,-2.48755 -4.93889,-5.1987398 l -4.93889,-4.9294404 v 4.9635602 c 0,2.72996 0.10584,5.06939 0.23519,5.19875 0.32894,0.32894 9.64259,0.29598 9.64259,-0.0341 z"
       id="path397" />
  </g>
</svg>
