<?xml version="1.0" encoding="UTF-8" standalone="no"?>
<!-- Created with Inkscape (http://www.inkscape.org/) -->

<svg
   width="45px"
   height="58px"
   viewBox="0 0 45 58"
   version="1.1"
   id="svg421"
   inkscape:version="1.2.1 (9c6d41e, 2022-07-14)"
   sodipodi:docname="NCPendientte.svg"
   xmlns:inkscape="http://www.inkscape.org/namespaces/inkscape"
   xmlns:sodipodi="http://sodipodi.sourceforge.net/DTD/sodipodi-0.dtd"
   xmlns="http://www.w3.org/2000/svg"
   xmlns:svg="http://www.w3.org/2000/svg">
  <sodipodi:namedview
     id="namedview423"
     pagecolor="#ffffff"
     bordercolor="#666666"
     borderopacity="1.0"
     inkscape:showpageshadow="2"
     inkscape:pageopacity="0.0"
     inkscape:pagecheckerboard="0"
     inkscape:deskcolor="#d1d1d1"
     inkscape:document-units="px"
     showgrid="false"
     inkscape:zoom="0.85700056"
     inkscape:cx="259.043"
     inkscape:cy="61.8436"
     inkscape:window-width="1390"
     inkscape:window-height="1112"
     inkscape:window-x="139"
     inkscape:window-y="27"
     inkscape:window-maximized="0"
     inkscape:current-layer="layer1" />
  <defs
     id="defs418" />
  <g
     inkscape:label="Capa 1"
     inkscape:groupmode="layer"
     id="layer1">
    <path
       style="fill:#000000;stroke-width:0.352778"
       d="M 0.44475973,29.329527 V 0.57813289 H 14.99978 29.55481 l 7.84636,7.85218201 7.84637,7.8521821 v 20.899207 20.89921 H 22.84615 0.44475973 Z M 42.69302,36.826054 42.78432,18.217027 h -7.58784 -7.58784 v -7.5893 -7.5892921 l -12.25903,0.09276 -12.2590303,0.09277 -0.0913,25.7527821 c -0.0502,14.164027 -0.015,25.952547 0.0783,26.196717 0.134,0.35091 4.29265,0.42483 19.8468103,0.35278 l 19.6773,-0.0912 z M 18.88849,51.395394 C 13.20535,50.011994 8.3457897,44.561094 7.5508697,38.678134 5.8683397,26.226297 17.75481,17.457387 29.69334,22.343157 c 0.34007,0.13917 0.43134,0.0319 0.28881,-0.33954 -0.31307,-0.81585 0.54366,-1.75514 1.47328,-1.61523 0.95898,0.14432 2.65465,3.85688 2.34027,5.12388 -0.20457,0.82447 -3.42808,2.02345 -4.86291,1.80876 -1.17192,-0.17535 -1.58602,-1.17434 -0.83211,-2.00741 0.62857,-0.69456 0.60665,-0.71515 -1.3744,-1.29106 -6.24879,-1.81657 -12.74317,1.02105 -15.58587,6.81 -1.3340003,2.716597 -1.4488603,8.083587 -0.22963,10.729767 2.12372,4.60926 6.19782,7.26361 11.75898,7.66117 l 2.99861,0.21436 v 1.05833 1.05834 l -2.82222,0.0586 c -1.55222,0.0322 -3.33317,-0.0658 -3.95766,-0.21777 z m 9.40118,-1.63433 c -0.63184,-0.76132 -0.11307,-1.52298 1.74443,-2.5612 2.55048,-1.42554 3.62617,0.57449 1.19683,2.22527 -1.52108,1.0336 -2.28942,1.12135 -2.94126,0.33593 z m 5.28677,-4.59201 c -0.63394,-0.76385 0.90019,-3.79308 2.00058,-3.95031 1.21657,-0.17381 1.67809,0.71914 1.09408,2.11686 -0.92086,2.20394 -2.172,2.94518 -3.09466,1.83345 z m -9.84834,-4.7012 -2.99862,-1.34197 v -5.06974 c 0,-4.599437 0.0588,-5.081067 0.63431,-5.191887 1.37168,-0.26416 1.65875,0.52749 1.65875,4.574317 v 3.84626 l 2.64992,1.20761 c 2.74425,1.25059 3.38347,1.9378 2.63802,2.83601 -0.62599,0.75428 -1.22559,0.64166 -4.58238,-0.8606 z m 12.36997,-1.9387 c -0.59975,-0.72265 -0.33218,-3.75231 0.37027,-4.19255 1.13765,-0.713 1.72365,-0.0443 1.72365,1.96685 0,2.43144 -1.0218,3.51754 -2.09392,2.2257 z m -1.80046,-7.991987 c -0.89132,-1.74714 -0.79993,-2.93094 0.2377,-3.07893 1.40101,-0.1998 3.14433,2.90501 2.24176,3.99254 -0.78331,0.943827 -1.70515,0.60416 -2.47946,-0.91361 z m 6.01104,-15.0589 c 0,-0.14812 -2.2225,-2.48756 -4.93889,-5.19875 L 30.43087,5.3500849 v 5.1987421 5.19875 h 4.93889 c 2.71639,0 4.93889,-0.12119 4.93889,-0.26931 z"
       id="path277" />
  </g>
</svg>
