<?xml version="1.0" encoding="UTF-8" standalone="no"?>
<!-- Created with Inkscape (http://www.inkscape.org/) -->

<svg
   width="45px"
   height="58px"
   viewBox="0 0 45 58"
   version="1.1"
   id="svg421"
   inkscape:version="1.2.1 (9c6d41e, 2022-07-14)"
   sodipodi:docname="Pagocompletado.svg"
   xmlns:inkscape="http://www.inkscape.org/namespaces/inkscape"
   xmlns:sodipodi="http://sodipodi.sourceforge.net/DTD/sodipodi-0.dtd"
   xmlns="http://www.w3.org/2000/svg"
   xmlns:svg="http://www.w3.org/2000/svg">
  <sodipodi:namedview
     id="namedview423"
     pagecolor="#ffffff"
     bordercolor="#666666"
     borderopacity="1.0"
     inkscape:showpageshadow="2"
     inkscape:pageopacity="0.0"
     inkscape:pagecheckerboard="0"
     inkscape:deskcolor="#d1d1d1"
     inkscape:document-units="px"
     showgrid="false"
     inkscape:zoom="0.85700056"
     inkscape:cx="357.05928"
     inkscape:cy="180.86336"
     inkscape:window-width="1390"
     inkscape:window-height="1112"
     inkscape:window-x="111"
     inkscape:window-y="25"
     inkscape:window-maximized="0"
     inkscape:current-layer="layer1" />
  <defs
     id="defs418" />
  <g
     inkscape:label="Capa 1"
     inkscape:groupmode="layer"
     id="layer1">
    <path
       style="fill:#000000;stroke-width:0.352778"
       d="M -0.17270039,29.020793 V 0.44579293 H 14.382321 28.937351 l 7.84636,7.85217997 7.84637,7.8521801 v 20.72282 20.72282 H 22.228691 -0.17270039 Z m 42.33333139,7.40833 v -18.69722 h -7.40833 -7.40833 V 10.147183 2.5624529 H 14.820361 2.2967436 v 26.2819501 26.28194 h 19.9319474 19.93194 z m -23.63611,15.0167 c -13.9819704,-3.89674 -15.7831204,-23.06615 -2.73703,-29.12994 13.50636,-6.27774 27.12303,7.6455 20.56144,21.02435 -3.18172,6.48742 -10.95199,10.02092 -17.82441,8.10559 z m 8.74,-1.98505 c 6.85687,-2.34789 10.7577,-10.1177 8.60167,-17.13314 -3.11261,-10.12804 -15.98359,-13.3277 -23.31879,-5.79693 -10.3422964,10.61805 0.65116,27.74645 14.71712,22.93007 z m -10.87178,-8.31742 c -1.78875,-1.67317 -2.27134,-2.95034 -1.11481,-2.95034 0.34867,0 1.25684,0.63789 2.01814,1.41754 l 1.38419,1.41753 5.65866,-5.65087 c 5.35646,-5.34908 6.8856,-6.46605 6.8856,-5.02961 0,0.81501 -11.63781,12.43152 -12.45431,12.43152 -0.34578,0 -1.41564,-0.7361 -2.37747,-1.63577 z m 24.004,-25.9735 c 0,-0.0509 -2.38125,-2.46989 -5.29166,-5.3754501 l -5.29167,-5.28285 v 5.37545 5.3754501 h 5.29167 c 2.91041,0 5.29166,-0.0417 5.29166,-0.0926 z"
       id="path399" />
  </g>
</svg>
