<?xml version="1.0" encoding="UTF-8" standalone="no"?>
<!-- Created with Inkscape (http://www.inkscape.org/) -->

<svg
   width="45px"
   height="58px"
   viewBox="0 0 45 58"
   version="1.1"
   id="svg421"
   inkscape:version="1.2.1 (9c6d41e, 2022-07-14)"
   sodipodi:docname="Pagorecibido.svg"
   xmlns:inkscape="http://www.inkscape.org/namespaces/inkscape"
   xmlns:sodipodi="http://sodipodi.sourceforge.net/DTD/sodipodi-0.dtd"
   xmlns="http://www.w3.org/2000/svg"
   xmlns:svg="http://www.w3.org/2000/svg">
  <sodipodi:namedview
     id="namedview423"
     pagecolor="#ffffff"
     bordercolor="#666666"
     borderopacity="1.0"
     inkscape:showpageshadow="2"
     inkscape:pageopacity="0.0"
     inkscape:pagecheckerboard="0"
     inkscape:deskcolor="#d1d1d1"
     inkscape:document-units="px"
     showgrid="false"
     inkscape:zoom="0.85700056"
     inkscape:cx="357.05928"
     inkscape:cy="180.86336"
     inkscape:window-width="1390"
     inkscape:window-height="1112"
     inkscape:window-x="143"
     inkscape:window-y="66"
     inkscape:window-maximized="0"
     inkscape:current-layer="layer1" />
  <defs
     id="defs418" />
  <g
     inkscape:label="Capa 1"
     inkscape:groupmode="layer"
     id="layer1">
    <path
       style="fill:#000000;stroke-width:0.352778"
       d="M 0.13603316,29.020788 V 0.26939807 H 14.679394 29.222754 l 7.858027,7.85803003 7.85803,7.8580299 v 20.89336 20.89336 H 22.537422 0.13603316 Z M 42.469366,50.540228 v -4.7625 h -3.351389 -3.351389 v -5.99722 -5.99722 h 3.351389 3.351389 v -8.11389 -8.11389 H 35.061033 27.652699 V 10.147178 2.7388381 H 15.129088 2.6054772 V 29.020788 55.302728 H 22.537422 42.469366 Z M 19.6228,46.317798 c -7.209149,-3.6089 -11.0053148,-6.37 -11.0146978,-8.0114 -0.01705,-2.98162 7.3206768,-1.59736 8.9225408,1.68324 0.746864,1.52957 2.588159,2.32058 5.097062,2.18966 2.951841,-0.15403 2.846514,-1.08558 -0.155221,-1.37284 -4.961061,-0.47476 -5.607449,-3.48491 -0.752004,-3.50199 1.433251,-0.005 2.446574,-0.29608 4.298998,-1.23473 2.15773,-1.09334 2.728787,-1.22812 5.203472,-1.22812 h 2.779749 v 5.05434 5.05435 l -3.439583,1.64899 c -4.785136,2.29407 -5.850115,2.26666 -10.940316,-0.2815 z m -4.235323,-15.72052 -3.269389,-3.86955 h 1.770083 1.770084 v -2.11666 -2.11667 h 3.351389 3.351389 v 2.09734 2.09733 l 1.551368,0.10753 1.551368,0.10752 -3.130738,3.70146 c -3.856253,4.55923 -3.085664,4.56015 -6.945554,-0.008 z m 2.740222,-11.3834 c 0,-0.25206 -0.555518,-0.65918 -1.234484,-0.90469 -1.310626,-0.47393 -2.120855,-1.53877 -1.802364,-2.36875 0.272541,-0.71023 1.054933,-0.62168 1.802126,0.20396 1.354777,1.49701 5.14612,0.39301 4.515647,-1.31492 -0.333423,-0.90323 -0.818017,-1.14303 -2.322117,-1.14912 -1.709789,-0.007 -3.617406,-0.80439 -4.105412,-1.71624 -1.044581,-1.95181 0.209866,-4.9919399 2.059824,-4.9919399 0.390048,0 0.879099,-0.3175 1.08678,-0.70556 0.207681,-0.38805 0.625004,-0.70555 0.927384,-0.70555 0.30238,0 0.63281,0.3175 0.734288,0.70555 0.102117,0.3905 0.481195,0.70556 0.848918,0.70556 0.365426,0 0.98191,0.3175 1.369966,0.70555 0.849923,0.84993 0.936004,2.1166701 0.143838,2.1166701 -0.308945,0 -0.965354,-0.3175001 -1.458686,-0.7055601 -2.21329,-1.74097 -5.693457,0.34964 -3.775231,2.2678599 0.368939,0.36894 1.200291,0.55437 2.485479,0.55437 2.476611,0 3.662933,1.00769 3.662933,3.11139 0,1.47321 -1.073503,3.23861 -1.969335,3.23861 -0.278858,0 -0.778867,0.3175 -1.11113,0.70555 -0.67814,0.79201 -1.858424,0.94905 -1.858424,0.24726 z M 40.3527,15.178668 c 0,-0.34592 -9.968562,-10.3231599 -10.314187,-10.3231599 -0.148031,0 -0.269147,2.38125 -0.269147,5.2916699 v 5.29166 h 5.291667 c 2.910417,0 5.291667,-0.11707 5.291667,-0.26017 z"
       id="path401" />
  </g>
</svg>
