<?xml version="1.0" encoding="UTF-8" standalone="no"?>
<!-- Created with Inkscape (http://www.inkscape.org/) -->

<svg
   width="45px"
   height="58px"
   viewBox="0 0 45 58"
   version="1.1"
   id="svg421"
   inkscape:version="1.2.1 (9c6d41e, 2022-07-14)"
   sodipodi:docname="Pagopendiente.svg"
   xmlns:inkscape="http://www.inkscape.org/namespaces/inkscape"
   xmlns:sodipodi="http://sodipodi.sourceforge.net/DTD/sodipodi-0.dtd"
   xmlns="http://www.w3.org/2000/svg"
   xmlns:svg="http://www.w3.org/2000/svg">
  <sodipodi:namedview
     id="namedview423"
     pagecolor="#ffffff"
     bordercolor="#666666"
     borderopacity="1.0"
     inkscape:showpageshadow="2"
     inkscape:pageopacity="0.0"
     inkscape:pagecheckerboard="0"
     inkscape:deskcolor="#d1d1d1"
     inkscape:document-units="px"
     showgrid="false"
     inkscape:zoom="0.85700056"
     inkscape:cx="67.677902"
     inkscape:cy="208.86801"
     inkscape:window-width="1390"
     inkscape:window-height="1112"
     inkscape:window-x="177"
     inkscape:window-y="51"
     inkscape:window-maximized="0"
     inkscape:current-layer="layer1" />
  <defs
     id="defs418" />
  <g
     inkscape:label="Capa 1"
     inkscape:groupmode="layer"
     id="layer1">
    <path
       style="fill:#000000;stroke-width:0.352778"
       d="M 0.3124224,29.020789 V 0.26940047 h 14.3786296 14.37864 l 7.846355,7.85218203 7.84638,7.8521825 v 20.899204 20.89921 H 22.537422 0.3124224 Z m 42.3333346,7.40833 V 17.555511 h -7.584725 -7.58472 V 10.147178 2.7388445 H 14.952702 2.4290824 V 29.020789 55.302729 H 22.537422 42.645757 Z M 18.465852,52.341209 C 8.7849924,49.989289 3.4469724,39.183009 7.5084724,30.159099 10.949602,22.513566 19.557782,18.831903 27.592032,21.569492 c 2.15546,0.734452 2.39218,0.757313 2.25099,0.217388 -0.35861,-1.371337 1.28318,-2.389865 2.12928,-1.320952 2.33362,2.948159 1.9024,5.289161 -1.14878,6.236511 -2.60369,0.80842 -5.22212,-0.68849 -2.81805,-1.61102 1.85464,-0.71169 -2.15508,-2.071907 -5.99722,-2.034432 -17.7590096,0.173214 -17.9308096,26.196802 -0.18009,27.279122 2.94137,0.17935 3.3635,0.28693 3.47794,0.88636 0.29596,1.55008 -2.9079,2.07408 -6.84025,1.11874 z m 9.49081,-1.80098 c -0.53532,-1.39501 3.0597,-3.70346 3.92968,-2.52335 0.63203,0.85734 0.35691,1.4721 -1.04709,2.33982 -1.3642,0.84313 -2.59931,0.92176 -2.88259,0.18353 z m -6.89135,-4.42445 c -0.0789,-0.5202 -0.54131,-0.90665 -1.46166,-1.2215 -2.30489,-0.78852 -3.5859,-2.47169 -2.69663,-3.5432 0.63172,-0.76117 1.52654,-0.62272 2.38945,0.36971 1.70787,1.96423 6.41595,0.94576 6.41595,-1.38792 0,-1.66224 -0.68811,-2.04868 -4.13551,-2.32249 -6.63004,-0.52659 -7.61174,-9.51876 -1.03919,-9.51876 0.29674,0 0.59024,-0.35718 0.65225,-0.79375 0.16138,-1.13634 2.17776,-1.15643 2.33907,-0.0233 0.0748,0.5253 0.43994,0.84298 1.14767,0.99842 1.35936,0.29857 3.22148,2.16598 3.08273,3.0915 -0.2127,1.41882 -1.16802,1.53863 -2.55543,0.32047 -2.36105,-2.07303 -6.54715,-1.20913 -6.54715,1.35116 0,1.445 1.13058,2.11107 3.58331,2.11107 6.58442,0 8.81348,8.20441 2.54839,9.37975 -0.82489,0.15475 -1.18381,0.4321 -1.26112,0.97453 -0.15942,1.11839 -2.29681,1.30444 -2.46213,0.21432 z m 12.52751,-0.53602 c -0.36005,-0.93828 1.29196,-3.68258 2.21685,-3.68258 1.146705,0 1.294505,0.96735 0.3969,2.59773 -0.87525,1.58977 -2.20776,2.14284 -2.61375,1.08485 z m 2.7267,-6.65255 c -0.7648,-0.92153 -0.3319,-4.24322 0.569725,-4.37158 1.04713,-0.14907 1.65228,1.07442 1.41317,2.85714 -0.24479,1.82505 -1.15082,2.51703 -1.982895,1.51444 z m -1.97107,-8.7565 c -1.33196,-2.87489 0.30968,-3.93046 1.94396,-1.24996 1.122635,1.84129 0.819395,3.09865 -0.7473,3.09865 -0.18708,0 -0.72558,-0.83191 -1.19666,-1.84869 z m 6.180635,-14.992034 c 0,-0.345927 -9.968565,-10.3231635 -10.314185,-10.3231635 -0.14803,0 -0.26915,2.38125 -0.26915,5.2916665 v 5.291666 h 5.29167 c 2.910415,0 5.291665,-0.117076 5.291665,-0.260169 z"
       id="path405" />
  </g>
</svg>
