<?xml version="1.0" encoding="UTF-8" standalone="no"?>
<!-- Created with Inkscape (http://www.inkscape.org/) -->

<svg
   width="45px"
   height="58px"
   viewBox="0 0 45 58"
   version="1.1"
   id="svg421"
   inkscape:version="1.2.1 (9c6d41e, 2022-07-14)"
   sodipodi:docname="Pagoenproceso.svg"
   xmlns:inkscape="http://www.inkscape.org/namespaces/inkscape"
   xmlns:sodipodi="http://sodipodi.sourceforge.net/DTD/sodipodi-0.dtd"
   xmlns="http://www.w3.org/2000/svg"
   xmlns:svg="http://www.w3.org/2000/svg">
  <sodipodi:namedview
     id="namedview423"
     pagecolor="#ffffff"
     bordercolor="#666666"
     borderopacity="1.0"
     inkscape:showpageshadow="2"
     inkscape:pageopacity="0.0"
     inkscape:pagecheckerboard="0"
     inkscape:deskcolor="#d1d1d1"
     inkscape:document-units="px"
     showgrid="false"
     inkscape:zoom="0.85700056"
     inkscape:cx="357.05928"
     inkscape:cy="180.86336"
     inkscape:window-width="1390"
     inkscape:window-height="1112"
     inkscape:window-x="164"
     inkscape:window-y="25"
     inkscape:window-maximized="0"
     inkscape:current-layer="layer1" />
  <defs
     id="defs418" />
  <g
     inkscape:label="Capa 1"
     inkscape:groupmode="layer"
     id="layer1">
    <path
       style="fill:#000000;stroke-width:0.352778"
       d="M 0.13602865,29.020791 V 0.26940058 H 14.691049 29.246079 l 7.84636,7.85218002 7.84637,7.8521804 v 20.89921 20.89921 H 22.537419 0.13602865 Z m 42.60101035,7.49653 -0.0913,-18.78542 -7.49653,-0.0952 -7.49652,-0.0952 V 10.140181 2.7388606 H 15.129089 2.6054686 v 26.2819504 26.28194 h 20.1114304 20.11143 z m -23.86688,14.72205 c -5.98725,-1.68145 -10.5195204,-6.78726 -11.1893904,-12.60539 -0.34728,-3.0163 0.66407,-2.87502 1.26264,0.17639 2.1420104,10.91972 14.6192004,15.24168 22.8634104,7.91965 l 1.824,-1.61997 -1.66614,-0.10713 c -2.5821,-0.16603 -1.96475,-0.80059 0.89149,-0.91634 l 2.55764,-0.10365 v 2.4849 c 0,1.97362 -0.10888,2.4849 -0.52917,2.4849 -0.36841,0 -0.52917,-0.3708 -0.52917,-1.22058 v -1.22058 l -2.26377,1.71345 c -4.00113,3.02844 -9.06249,4.18237 -13.22154,3.01435 z m 1.37192,-5.76935 c -6.90888,-2.27269 -9.03132,-10.34317 -4.06207,-15.44587 6.85201,-7.03603 18.14179,-0.0429 15.29115,9.47173 -1.24298,4.14867 -7.17858,7.30656 -11.22908,5.97414 z m 5.96651,-2.1449 c 4.39607,-2.24271 5.57312,-7.99808 2.41842,-11.82528 -4.55647,-5.5278 -13.67431,-2.24102 -13.67431,4.92928 0,5.78937 6.09979,9.52645 11.25589,6.896 z m -4.06037,-1.21925 c -0.10487,-0.27328 -0.66158,-0.69193 -1.23713,-0.93033 -1.18213,-0.48966 -1.80716,-1.39694 -1.40766,-2.04335 0.28593,-0.46263 1.44649,-0.19523 1.44649,0.33329 0,0.44652 3.43791,0.39306 3.71656,-0.0578 0.70116,-1.1345 -0.16089,-2.00693 -2.14569,-2.17153 -3.73563,-0.30978 -5.15704,-5.56953 -1.50512,-5.56953 0.36407,0 0.75333,-0.23812 0.86501,-0.52916 0.11168,-0.29105 0.48659,-0.52917 0.83313,-0.52917 0.34654,0 0.72144,0.23812 0.83313,0.52917 0.11168,0.29104 0.42156,0.52916 0.68862,0.52916 0.64772,0 1.65325,1.14336 1.65325,1.87986 0,0.7263 -0.3626,0.74699 -1.25549,0.0716 -1.19579,-0.90445 -3.62911,-0.70314 -3.88628,0.32151 -0.30107,1.19955 0.0557,1.60755 1.40578,1.60755 1.60969,0 3.33159,0.65548 3.74343,1.42502 0.86574,1.61764 -0.11009,4.21942 -1.58253,4.21942 -0.28421,0 -0.68668,0.3175 -0.89436,0.70556 -0.44067,0.82341 -1.00001,0.91524 -1.27114,0.20869 z m 14.04256,-7.68293 c -2.04208,-10.98073 -14.61341,-15.32183 -22.94409,-7.923 l -1.84532,1.6389 h 1.80506 c 2.93191,0 2.04524,0.86016 -1.01598,0.9856 l -2.5294204,0.10365 v -2.51077 c 0,-2.77641 1.0994304,-3.6828 1.3469704,-1.11046 l 0.11224,1.1664 1.58986,-1.46548 c 8.85037,-8.15799 24.82037,-1.65931 24.82037,10.10017 0,2.08385 -0.89077,1.42891 -1.33969,-0.98501 z m 4.51469,-19.0767 c 0,-0.0509 -2.38125,-2.46989 -5.29166,-5.3754504 l -5.29167,-5.28285 v 5.3754504 5.37545 h 5.29167 c 2.91041,0 5.29166,-0.0417 5.29166,-0.0926 z"
       id="path407" />
  </g>
</svg>
