<?xml version="1.0" encoding="UTF-8" standalone="no"?>
<!-- Created with Inkscape (http://www.inkscape.org/) -->

<svg
   width="45px"
   height="58px"
   viewBox="0 0 45 58"
   version="1.1"
   id="svg421"
   inkscape:version="1.2.1 (9c6d41e, 2022-07-14)"
   sodipodi:docname="Pagoincorrecto.svg"
   xmlns:inkscape="http://www.inkscape.org/namespaces/inkscape"
   xmlns:sodipodi="http://sodipodi.sourceforge.net/DTD/sodipodi-0.dtd"
   xmlns="http://www.w3.org/2000/svg"
   xmlns:svg="http://www.w3.org/2000/svg">
  <sodipodi:namedview
     id="namedview423"
     pagecolor="#ffffff"
     bordercolor="#666666"
     borderopacity="1.0"
     inkscape:showpageshadow="2"
     inkscape:pageopacity="0.0"
     inkscape:pagecheckerboard="0"
     inkscape:deskcolor="#d1d1d1"
     inkscape:document-units="px"
     showgrid="false"
     inkscape:zoom="0.85700056"
     inkscape:cx="357.05928"
     inkscape:cy="180.86336"
     inkscape:window-width="1390"
     inkscape:window-height="1112"
     inkscape:window-x="19"
     inkscape:window-y="28"
     inkscape:window-maximized="0"
     inkscape:current-layer="layer1" />
  <defs
     id="defs418" />
  <g
     inkscape:label="Capa 1"
     inkscape:groupmode="layer"
     id="layer1">
    <path
       style="fill:#000000;stroke-width:0.352778"
       d="M 0.13603206,29.020785 V 0.44578751 H 14.691056 29.246079 l 7.84636,7.85218199 7.84637,7.8521835 v 20.722822 20.72281 H 22.537419 0.13603206 Z M 42.469369,36.605515 V 17.731899 h -7.40834 -7.40833 V 10.323566 2.9152315 H 15.129088 2.6054761 V 29.197175 55.479125 H 22.537419 42.469369 Z M 18.217172,51.102885 C 6.6700991,47.345425 5.3203011,30.684095 16.134005,25.389145 c 14.659054,-7.177835 27.772884,11.95595 15.681344,22.87992 -3.2079,2.89815 -9.42129,4.193 -13.598177,2.83382 z m 8.891947,-1.64589 c 4.25386,-1.59157 7.54573,-6.02587 7.87342,-10.60586 0.85112,-11.89542 -13.29564,-18.23344 -21.450923,-9.61042 -9.0984119,9.62023 1.14268,24.86874 13.577503,20.21628 z m -5.54184,-2.82557 c -1.146427,-0.66774 -0.527551,-2.44119 0.8519,-2.44119 0.52472,0 1.35296,0.94219 1.35296,1.53911 0,0.85715 -1.34043,1.40556 -2.20486,0.90208 z m -0.0332,-8.35022 c -0.12527,-1.89177 -0.22859,-4.51115 -0.22959,-5.82083 l -0.002,-2.38125 h 1.11116 1.11116 l -0.22922,3.22919 c -0.12607,1.77606 -0.22921,4.39544 -0.22921,5.82083 0,4.44618 -1.22684,3.76735 -1.53247,-0.84794 z M 9.0675911,19.180858 c -0.100872,-0.385736 -0.601585,-0.753103 -1.185686,-0.869923 -1.460473,-0.292095 -2.417797,-1.824969 -1.631075,-2.611691 0.537116,-0.537116 0.631837,-0.522755 1.302901,0.197548 1.315522,1.412047 4.9295229,0.839287 4.9295229,-0.781249 0,-0.875152 -1.275079,-1.616977 -2.7793239,-1.616977 -2.708458,0 -4.276231,-1.376409 -4.276231,-3.7542705 0,-1.079036 1.772195,-2.948508 2.795085,-2.948508 0.402981,0 0.732693,-0.228756 0.732693,-0.508347 0,-0.863209 0.789718,-1.051853 1.3800489,-0.32966 0.308126,0.376951 1.055573,0.88919 1.660994,1.138308 1.381144,0.568312 2.092275,1.92139 1.338568,2.546911 -0.420619,0.349083 -0.673479,0.286914 -1.325884,-0.325989 -0.910047,-0.854944 -3.6640159,-1.064268 -4.3942829,-0.334001 -1.227573,1.2275735 0.02709,2.7516675 2.265217,2.7516675 4.4664089,0 6.0937009,4.944473 2.1023049,6.387781 -0.667221,0.24127 -1.288881,0.728346 -1.381465,1.082391 -0.221217,0.845936 -1.3103529,0.828896 -1.5333869,-0.02399 z M 40.705479,15.522627 c 0,-0.05093 -2.38125,-2.469886 -5.29167,-5.37545 l -5.29167,-5.2828455 v 5.3754505 5.37545 h 5.29167 c 2.91042,0 5.29167,-0.04167 5.29167,-0.09261 z"
       id="path395" />
  </g>
</svg>
